<?xml version="1.0"?>
<svg xmlns="http://www.w3.org/2000/svg" id="Layer_2" height="512px" viewBox="0 0 128 128" width="512px" data-name="Layer 2"><g><g fill="rgb(0,0,0)"><path d="m64 0a64 64 0 1 0 64 64 64.072 64.072 0 0 0 -64-64zm0 124.5a60.5 60.5 0 1 1 60.5-60.5 60.569 60.569 0 0 1 -60.5 60.5z" data-original="#000000" class="active-path" data-old_color="#000000" fill="#FFFFFF"/><path d="m64 10a54 54 0 1 0 54 54 54.061 54.061 0 0 0 -54-54zm0 104.5a50.5 50.5 0 1 1 50.5-50.5 50.557 50.557 0 0 1 -50.5 50.5z" data-original="#000000" class="active-path" data-old_color="#000000" fill="#FFFFFF"/><path d="m90.483 39.834a1.748 1.748 0 0 0 -2.474 0l-30.478 30.477-17.54-17.54a1.8 1.8 0 0 0 -2.474 0l-7.071 7.072a1.75 1.75 0 0 0 0 2.474l25.848 25.849a1.749 1.749 0 0 0 2.475 0l38.785-38.786a1.751 1.751 0 0 0 0-2.475zm-32.952 44.62-23.373-23.374 4.6-4.6 17.54 17.539a1.749 1.749 0 0 0 2.475 0l30.473-30.473 4.6 4.6z" data-original="#000000" class="active-path" data-old_color="#000000" fill="#FFFFFF"/></g></g> </svg>
